<?xml version="1.0" encoding="utf-8"?>
<!-- Generator: Adobe Illustrator 24.3.0, SVG Export Plug-In . SVG Version: 6.00 Build 0)  -->
<svg version="1.1" id="logos" xmlns="http://www.w3.org/2000/svg" xmlns:xlink="http://www.w3.org/1999/xlink" x="0px" y="0px"
	 viewBox="0 0 61 63" style="enable-background:new 0 0 61 63;" xml:space="preserve">
<style type="text/css">
	.st0{fill:#89018B;}
	.st1{fill:#004CFF;}
	.st2{fill:#008113;}
	.st3{fill:#FFEE00;}
	.st4{fill:#FF8D00;}
	.st5{fill:#FF0000;}
</style>
<g id="color">
	<g id="iso_1_">
		<path id="XMLID_124_" class="st0" d="M8.7,59.6c-0.5,0-1-0.2-1.3-0.5c-0.6-0.5-0.8-1.3-0.6-2l2.5-9.3c-3-4.2-4.8-9.2-5.1-14.4
			C3.7,26,6.2,19,11,13.4c4.9-5.5,11.6-8.8,19-9.3s14.4,2,20,6.8l0,0c5.5,4.9,8.8,11.6,9.3,19s-2,14.4-6.8,20
			c-4.9,5.5-11.6,8.8-19,9.3c-5.2,0.3-10.4-0.8-14.9-3.3l-8.9,3.6C9.2,59.6,9,59.6,8.7,59.6z M18.6,51.6c0.4,0,0.7,0.1,1,0.3
			c4.1,2.4,8.7,3.5,13.5,3.2l0,0c6.3-0.4,12-3.2,16.2-7.9s6.2-10.8,5.8-17c-0.4-6.3-3.2-12-7.9-16.2s-10.8-6.2-17-5.8
			c-6.3,0.4-12,3.2-16.2,7.9s-6.2,10.8-5.8,17c0.3,4.7,2,9.2,4.9,13c0.4,0.5,0.5,1.2,0.4,1.8l-1.7,6.3l6.1-2.5
			c0.2-0.1,0.4-0.1,0.6-0.1C18.5,51.6,18.5,51.6,18.6,51.6z"/>
		<path id="XMLID_118_" class="st0" d="M32.1,42.1c-0.7,0-1.5-0.1-2.2-0.2c-3.9-0.6-7.3-2.9-9.4-6.1c-0.2-0.4-0.3-0.8-0.2-1.2
			c0.1-0.4,0.3-0.8,0.7-1c0.7-0.5,1.7-0.3,2.2,0.5c1.6,2.5,4.2,4.2,7.2,4.7s6-0.3,8.3-2.2c0.3-0.3,0.7-0.4,1.2-0.3
			c0.4,0,0.8,0.3,1.1,0.6l0,0c0.6,0.7,0.4,1.7-0.2,2.2C38.3,41.1,35.3,42.1,32.1,42.1z"/>
		<path id="XMLID_112_" class="st0" d="M44,32c-0.1,0-0.2,0-0.3,0c-0.4-0.1-0.8-0.3-1-0.6c-0.2-0.3-0.3-0.8-0.3-1.2
			c0.2-1.3-0.7-2.6-2-2.8c-1.3-0.2-2.6,0.7-2.8,2c-0.1,0.9-1,1.5-1.8,1.3c-0.4-0.1-0.8-0.3-1-0.6c-0.2-0.3-0.3-0.8-0.3-1.2
			c0.2-1.5,1-2.8,2.3-3.6c1.2-0.9,2.7-1.2,4.2-1l0,0c1.5,0.2,2.8,1,3.6,2.3c0.9,1.2,1.2,2.7,1,4.2c-0.1,0.4-0.3,0.8-0.6,1
			C44.7,31.9,44.3,32,44,32z"/>
		<path id="XMLID_106_" class="st0" d="M28.2,29.4c-0.1,0-0.2,0-0.3,0c-0.4-0.1-0.8-0.3-1-0.6c-0.2-0.3-0.3-0.8-0.3-1.2
			c0.2-1.3-0.7-2.6-2-2.8c-1.3-0.2-2.6,0.7-2.8,2c-0.1,0.4-0.3,0.8-0.6,1c-0.3,0.2-0.8,0.3-1.2,0.3c-0.9-0.1-1.5-1-1.3-1.8
			c0.5-3.1,3.4-5.1,6.4-4.6c1.5,0.2,2.8,1,3.6,2.3c0.9,1.2,1.2,2.7,1,4.2c-0.1,0.4-0.3,0.8-0.6,1C28.8,29.3,28.5,29.4,28.2,29.4z"/>
	</g>
</g>
<g>
	<path class="st1" d="M13.5,47.9c0.1-0.6,0-1.3-0.4-1.8c-2.9-3.8-4.6-8.3-4.9-13c-0.4-6.2,1.6-12.3,5.8-17s9.9-7.5,16.2-7.9
		c6.2-0.4,12.3,1.6,17,5.8s7.5,9.9,7.9,16.2c0.4,6.2-1.6,12.3-5.8,17c-1.5,1.6-3.1,3-4.9,4.2H51c0.5-0.5,1-1,1.5-1.5
		c4.8-5.6,7.3-12.6,6.8-20c-0.5-7.4-3.8-14.1-9.3-19c-5.6-4.8-12.6-7.3-20-6.8s-14.1,3.8-19,9.3C6.2,19,3.7,26,4.2,33.4
		c0.3,5.2,2.1,10.2,5.1,14.4l-1,3.6h4.2L13.5,47.9z"/>
	<path class="st1" d="M39.9,36.3c-0.5-0.1-0.9,0-1.2,0.3c-2.3,1.9-5.3,2.7-8.3,2.2s-5.6-2.2-7.2-4.7c-0.5-0.8-1.5-1-2.2-0.5
		c-0.4,0.2-0.6,0.6-0.7,1c-0.1,0.4,0,0.8,0.2,1.2c2.1,3.2,5.5,5.5,9.4,6.1c0.7,0.1,1.5,0.2,2.2,0.2c3.2,0,6.2-1,8.7-3
		c0.6-0.5,0.8-1.5,0.2-2.2C40.7,36.6,40.3,36.3,39.9,36.3z"/>
	<path class="st1" d="M41,24.3c-1.5-0.2-3,0.1-4.2,1c-1.3,0.8-2.1,2.1-2.3,3.6c0,0.4,0.1,0.9,0.3,1.2s0.6,0.5,1,0.6
		c0.8,0.2,1.7-0.4,1.8-1.3c0.2-1.3,1.5-2.2,2.8-2c1.3,0.2,2.2,1.5,2,2.8c0,0.4,0.1,0.9,0.3,1.2c0.2,0.3,0.6,0.5,1,0.6
		c0.1,0,0.2,0,0.3,0c0.3,0,0.7-0.1,1-0.2c0.3-0.2,0.5-0.6,0.6-1c0.2-1.5-0.1-3-1-4.2C43.8,25.3,42.5,24.5,41,24.3z"/>
	<path class="st1" d="M21.8,26.8c0.2-1.3,1.5-2.2,2.8-2c1.3,0.2,2.2,1.5,2,2.8c0,0.4,0.1,0.9,0.3,1.2c0.2,0.3,0.6,0.5,1,0.6
		c0.1,0,0.2,0,0.3,0c0.3,0,0.6-0.1,0.9-0.2c0.3-0.2,0.5-0.6,0.6-1c0.2-1.5-0.1-3-1-4.2c-0.8-1.3-2.1-2.1-3.6-2.3
		c-3-0.5-5.9,1.5-6.4,4.6c-0.2,0.8,0.4,1.7,1.3,1.8c0.4,0,0.9-0.1,1.2-0.3S21.7,27.2,21.8,26.8z"/>
</g>
<g>
	<path class="st2" d="M8.2,33.1c-0.4-6.2,1.6-12.3,5.8-17s9.9-7.5,16.2-7.9c6.2-0.4,12.3,1.6,17,5.8s7.5,9.9,7.9,16.2
		c0.3,4.1-0.5,8.1-2.3,11.7h4.6c1.5-3.8,2.2-7.8,1.9-12c-0.5-7.4-3.8-14.1-9.3-19c-5.6-4.8-12.6-7.3-20-6.8s-14.1,3.8-19,9.3
		C6.2,19,3.7,26,4.2,33.4c0.2,2.9,0.8,5.8,1.9,8.5h4.4C9.2,39.1,8.4,36.2,8.2,33.1z"/>
	<path class="st2" d="M40.8,39.1c0.6-0.5,0.8-1.5,0.2-2.2c-0.3-0.3-0.7-0.6-1.1-0.6c-0.5-0.1-0.9,0-1.2,0.3
		c-2.3,1.9-5.3,2.7-8.3,2.2s-5.6-2.2-7.2-4.7c-0.5-0.8-1.5-1-2.2-0.5c-0.4,0.2-0.6,0.6-0.7,1c-0.1,0.4,0,0.8,0.2,1.2
		c2.1,3.2,5.5,5.5,9.4,6.1h4.6C36.8,41.5,38.9,40.6,40.8,39.1z"/>
	<path class="st2" d="M41,24.3c-1.5-0.2-3,0.1-4.2,1c-1.3,0.8-2.1,2.1-2.3,3.6c0,0.4,0.1,0.9,0.3,1.2s0.6,0.5,1,0.6
		c0.8,0.2,1.7-0.4,1.8-1.3c0.2-1.3,1.5-2.2,2.8-2c1.3,0.2,2.2,1.5,2,2.8c0,0.4,0.1,0.9,0.3,1.2c0.2,0.3,0.6,0.5,1,0.6
		c0.1,0,0.2,0,0.3,0c0.3,0,0.7-0.1,1-0.2c0.3-0.2,0.5-0.6,0.6-1c0.2-1.5-0.1-3-1-4.2C43.8,25.3,42.5,24.5,41,24.3z"/>
	<path class="st2" d="M25.1,21.7c-3-0.5-5.9,1.5-6.4,4.6c-0.2,0.8,0.4,1.7,1.3,1.8c0.4,0,0.9-0.1,1.2-0.3s0.5-0.6,0.6-1
		c0.2-1.3,1.5-2.2,2.8-2c1.3,0.2,2.2,1.5,2,2.8c0,0.4,0.1,0.9,0.3,1.2c0.2,0.3,0.6,0.5,1,0.6c0.1,0,0.2,0,0.3,0
		c0.3,0,0.6-0.1,0.9-0.2c0.3-0.2,0.5-0.6,0.6-1c0.2-1.5-0.1-3-1-4.2C27.9,22.7,26.6,21.9,25.1,21.7z"/>
</g>
<g>
	<path class="st3" d="M14,16.1c4.2-4.7,9.9-7.5,16.2-7.9c6.2-0.4,12.3,1.6,17,5.8s7.5,9.9,7.9,16.2c0,0.7,0.1,1.5,0,2.2h4.2
		c0-0.8,0-1.7-0.1-2.5c-0.5-7.4-3.8-14.1-9.3-19c-5.6-4.8-12.6-7.3-20-6.8s-14.1,3.8-19,9.3c-4.6,5.3-7.1,12-6.8,19h4
		C8,26.4,10,20.6,14,16.1z"/>
	<path class="st3" d="M41,24.3c-1.5-0.2-3,0.1-4.2,1c-1.3,0.8-2.1,2.1-2.3,3.6c0,0.4,0.1,0.9,0.3,1.2s0.6,0.5,1,0.6
		c0.8,0.2,1.7-0.4,1.8-1.3c0.2-1.3,1.5-2.2,2.8-2c1.3,0.2,2.2,1.5,2,2.8c0,0.4,0.1,0.9,0.3,1.2c0.2,0.3,0.6,0.5,1,0.6
		c0.1,0,0.2,0,0.3,0c0.3,0,0.7-0.1,1-0.2c0.3-0.2,0.5-0.6,0.6-1c0.2-1.5-0.1-3-1-4.2C43.8,25.3,42.5,24.5,41,24.3z"/>
	<path class="st3" d="M25.1,21.7c-3-0.5-5.9,1.5-6.4,4.6c-0.2,0.8,0.4,1.7,1.3,1.8c0.4,0,0.9-0.1,1.2-0.3s0.5-0.6,0.6-1
		c0.2-1.3,1.5-2.2,2.8-2c1.3,0.2,2.2,1.5,2,2.8c0,0.4,0.1,0.9,0.3,1.2c0.2,0.3,0.6,0.5,1,0.6c0.1,0,0.2,0,0.3,0
		c0.3,0,0.6-0.1,0.9-0.2c0.3-0.2,0.5-0.6,0.6-1c0.2-1.5-0.1-3-1-4.2C27.9,22.7,26.6,21.9,25.1,21.7z"/>
</g>
<g>
	<path class="st4" d="M14,16.1c4.2-4.7,9.9-7.5,16.2-7.9c6.2-0.4,12.3,1.6,17,5.8c2.8,2.5,4.8,5.4,6.2,8.7h4.5
		c-1.5-4.5-4.2-8.6-7.9-11.8c-5.6-4.8-12.6-7.3-20-6.8s-14.1,3.8-19,9.3c-2.4,2.8-4.2,6-5.4,9.3h4.3C10.9,20.3,12.2,18.1,14,16.1z"
		/>
	<path class="st4" d="M25.1,21.7c-1.6-0.3-3.1,0.2-4.3,1h6.7C26.8,22.2,26,21.8,25.1,21.7z"/>
</g>
<g>
	<path class="st5" d="M30.2,8.2c5.9-0.4,11.6,1.4,16.2,5.2h6c-0.8-0.9-1.6-1.7-2.4-2.5c-5.6-4.8-12.6-7.3-20-6.8
		c-7.4,0.5-14.1,3.8-19,9.3h5.9C20.7,10.3,25.2,8.5,30.2,8.2z"/>
</g>
</svg>
