<?xml version="1.0" encoding="utf-8"?>
<!-- Generator: Adobe Illustrator 19.0.0, SVG Export Plug-In . SVG Version: 6.00 Build 0)  -->
<svg version="1.1" id="logos" xmlns="http://www.w3.org/2000/svg" xmlns:xlink="http://www.w3.org/1999/xlink" x="0px" y="0px"
	 viewBox="0 0 200 63" style="enable-background:new 0 0 200 63;" xml:space="preserve">
<style type="text/css">
	.st0{fill:#FFFFFF;}
</style>
<g id="color">
	<g id="iso_1_">
		<path id="XMLID_124_" class="st0" d="M177.9,26.4c-0.2,0-0.4-0.1-0.5-0.2c-0.2-0.2-0.3-0.5-0.2-0.8l1-3.7
			c-1.2-1.7-1.9-3.7-2.1-5.8c-0.2-3,0.8-5.8,2.7-8c2-2.2,4.7-3.5,7.6-3.7c3-0.2,5.8,0.8,8,2.7h0c2.2,2,3.5,4.7,3.7,7.6
			c0.2,3-0.8,5.8-2.7,8c-2,2.2-4.7,3.5-7.6,3.7c-2.1,0.1-4.2-0.3-6-1.3l-3.6,1.5C178.1,26.4,178,26.4,177.9,26.4z M181.9,23.2
			c0.1,0,0.3,0,0.4,0.1c1.6,1,3.5,1.4,5.4,1.3l0,0c2.5-0.2,4.8-1.3,6.5-3.2c1.7-1.9,2.5-4.3,2.3-6.8c-0.2-2.5-1.3-4.8-3.2-6.5
			c-1.9-1.7-4.3-2.5-6.8-2.3C184,5.9,181.7,7,180,8.9c-1.7,1.9-2.5,4.3-2.3,6.8c0.1,1.9,0.8,3.7,2,5.2c0.2,0.2,0.2,0.5,0.1,0.7
			l-0.7,2.5l2.4-1C181.6,23.2,181.7,23.2,181.9,23.2C181.8,23.2,181.8,23.2,181.9,23.2z"/>
		<path id="XMLID_118_" class="st0" d="M187.3,19.4c-0.3,0-0.6,0-0.9-0.1c-1.6-0.3-2.9-1.2-3.8-2.5c-0.1-0.1-0.1-0.3-0.1-0.5
			c0-0.2,0.1-0.3,0.3-0.4c0.3-0.2,0.7-0.1,0.9,0.2c0.6,1,1.7,1.7,2.9,1.9c1.2,0.2,2.4-0.1,3.3-0.9c0.1-0.1,0.3-0.2,0.5-0.1
			c0.2,0,0.3,0.1,0.4,0.2l0,0c0.2,0.3,0.2,0.7-0.1,0.9C189.8,18.9,188.6,19.4,187.3,19.4z"/>
		<path id="XMLID_112_" class="st0" d="M192.1,15.3c0,0-0.1,0-0.1,0c-0.2,0-0.3-0.1-0.4-0.3c-0.1-0.1-0.1-0.3-0.1-0.5
			c0.1-0.5-0.3-1-0.8-1.1c-0.5-0.1-1,0.3-1.1,0.8c-0.1,0.3-0.4,0.6-0.7,0.5c-0.2,0-0.3-0.1-0.4-0.3c-0.1-0.1-0.1-0.3-0.1-0.5
			c0.1-0.6,0.4-1.1,0.9-1.5c0.5-0.4,1.1-0.5,1.7-0.4l0,0c0.6,0.1,1.1,0.4,1.5,0.9c0.4,0.5,0.5,1.1,0.4,1.7c0,0.2-0.1,0.3-0.3,0.4
			C192.3,15.3,192.2,15.3,192.1,15.3z"/>
		<path id="XMLID_106_" class="st0" d="M185.7,14.3c0,0-0.1,0-0.1,0c-0.2,0-0.3-0.1-0.4-0.3c-0.1-0.1-0.1-0.3-0.1-0.5
			c0.1-0.5-0.3-1-0.8-1.1c-0.5-0.1-1,0.3-1.1,0.8c0,0.2-0.1,0.3-0.3,0.4c-0.1,0.1-0.3,0.1-0.5,0.1c-0.3-0.1-0.6-0.4-0.5-0.7
			c0.2-1.2,1.4-2.1,2.6-1.9c0.6,0.1,1.1,0.4,1.5,0.9c0.4,0.5,0.5,1.1,0.4,1.7c0,0.2-0.1,0.3-0.3,0.4C186,14.2,185.9,14.3,185.7,14.3
			z"/>
	</g>
	<path id="HolaHello_2_" class="st0" d="M172.8,23.8c-0.8-2.3-2.4-4.3-5-5.1c-0.9-0.3-1.7-0.4-2.7-0.3c-6,0.5-11,5.3-13,12.5
		c-0.1,0.5-0.2,1.1-0.3,1.6c0,0.1-0.1,0.2-0.1,0.2c-1.4,3.5-2.9,7.7-5.1,7.6c-1.7-0.1-1.5-2.3-1.1-4c0.2-0.4,0.3-0.8,0.4-1.2
		c0-0.1,0.1-0.2,0.1-0.3c3.4-9,6.6-18.1,9.9-27.2c0.4-1-0.2-2.1-1.2-2.5c-1-0.4-2.1,0.2-2.5,1.2c-3.5,9.4-6.9,18.8-10.4,28.4
		c-0.1,0.3-0.2,0.5-0.2,0.8c-1.2,2.9-2.5,5.6-4.3,5.5c-1.9-0.1-1.4-2.7-1-4.4c3.5-9.4,6.9-18.9,10.3-28.3c0.4-1-0.2-2.1-1.2-2.5
		c-1-0.4-2.1,0.2-2.5,1.2c-3.4,9.2-6.7,18.4-10.2,27.9c-2.1,4.7-5.6,7.1-10.6,7.1c-4.9,0-5.5-3.4-5.2-6.8l1.3,0.1
		c2.9,0.3,9.2-1.4,12.2-4.1c4.7-3.9,1.3-10.7-4.2-10.2c-6,0.5-10.6,4.3-12.6,11.5c-0.3,1-0.5,2.1-0.5,3.4c0,0,0,0,0,0
		c-1.4,3.5-3.1,7.7-5.3,7.6c-1.8-0.1-1.5-2.8-0.9-4.4L117.1,11c0.4-1-0.2-2.1-1.2-2.5c-1-0.4-2.1,0.2-2.5,1.2l-7,19.1l-9.4,0.7
		l3.9-10.8l0.1,0.1l3.3-9.1c0.1-0.2,0.1-0.4,0.1-0.6c0.1-1.1-0.8-1.9-1.8-1.8c-0.9,0.1-1.6,0.7-1.9,1.5l-1.7,4.7l-0.1,0l-10.2,28
		c0,0.1-0.1,0.1-0.1,0.2c-1.4,3.5-2.3,6.2-4.5,6.1c-1.8-0.1-1.6-2.8-1-4.4l5.1-13.8c0.4-1-0.2-2.1-1.2-2.5c-1-0.4-2.1,0.2-2.5,1.2
		l-1.2,3.3c-0.9-1.6-2.3-2.8-4.3-3.4c-0.9-0.3-1.7-0.4-2.7-0.3c-6,0.5-11,5.3-13,12.5c-0.2,0.6-0.3,1.2-0.3,1.8c0,0,0,0,0,0
		c-1.4,3.5-2.9,7.7-5.1,7.6c-1.9-0.1-1.4-2.7-1-4.4c3.5-9.4,6.9-18.9,10.3-28.3c0.4-1-0.2-2.1-1.2-2.5c-1-0.4-2.1,0.2-2.5,1.2
		c-3.5,9.4-6.9,18.8-10.4,28.4c0,0.1-0.1,0.2-0.1,0.3c-1.2,3.1-2.7,6.1-4.6,6c-0.8,0-1.1-0.2-1.3-0.5c1.6-2,3-4.5,3.9-7.3
		c0.2-0.7,0.4-1.5,0.4-2.3c0,0,0.3-2.8-0.5-4.6c-0.1-0.3-0.2-0.6-0.3-0.8c0,0,0-0.1,0-0.1c0-0.1-0.1-0.2-0.1-0.2
		c0-0.1-0.1-0.2-0.1-0.2c0,0,0,0,0-0.1c-0.9-1.7-2.4-3.1-4.4-3.7c-0.9-0.3-1.7-0.4-2.7-0.3c-6,0.5-11,5.3-13,12.5
		c-0.1,0.5-0.2,1-0.3,1.6c-0.1,0.1-0.1,0.2-0.2,0.3c-1.4,3.5-3.1,7.7-5.3,7.6c-1.8-0.1-1.5-2.8-0.9-4.4l10.3-28.3
		c0.4-1-0.2-2.1-1.2-2.5c-1-0.4-2.1,0.2-2.5,1.2l-7,19.1l-9.4,0.7L18,27.5l0.1,0.1l3.3-9.1c0.1-0.2,0.1-0.4,0.1-0.6
		c0.1-1.1-0.8-1.9-1.8-1.8c-0.9,0.1-1.6,0.7-1.9,1.5l-1.7,4.7l-0.1,0L4,55.6c-0.1,0.2-0.1,0.4-0.1,0.6c-0.1,1.1,0.8,1.9,1.8,1.8
		c0.9-0.1,1.6-0.7,1.9-1.5l5.2-14.2l9.4-0.7c-0.6,1.6-1.1,3.3-1.8,5c-1.2,3-1.6,9.6,4.4,9.8c3.2,0.1,5.3-2.4,6.8-5
		c0.9,1.7,2.4,3.1,4.5,3.7c0.8,0.2,1.6,0.3,2.4,0.2c2.4-0.2,4.6-1.1,6.5-2.5c0.7,1,1.9,1.6,3.7,1.7c2.2,0.1,4-1.1,5.3-2.8
		c0.8,1.1,2.1,2,4.1,2c3.1,0.1,5.2-2.2,6.6-4.8c0.9,1.6,2.3,2.9,4.4,3.5c0.8,0.2,1.6,0.3,2.4,0.2c3.1-0.2,5.9-1.7,8.2-4.1
		c0.6,1.7,2,2.9,4.6,3.1c3.8,0.2,5.6-2.7,6.7-5.4c0,0,0,0,0,0l0-0.1c0.2-0.4,0.3-0.8,0.5-1.2l4.4-11.4l9.4-0.7
		c-0.6,1.6-1.1,3.3-1.8,5c-1.2,3-1.6,9.6,4.4,9.8c3.2,0.1,5.4-2.5,6.8-5.1c1.4,2.1,3.8,3.5,7.9,3.4c4.3-0.2,7.6-1.8,10.1-4
		c0.6,1.7,2,3,4.6,3.1c2.2,0.1,3.9-1.1,5.2-2.7c0.8,1.1,2.1,1.9,4,1.9c3.1,0.1,5.2-2.3,6.7-4.9c0.9,1.7,2.3,3,4.4,3.6
		c0.8,0.2,1.6,0.3,2.4,0.2c2.4-0.2,4.6-1.1,6.5-2.5c0,0,1.7-1.3,2.6-2.7c1.6-2,3-4.5,3.9-7.3c0.2-0.7,0.4-1.5,0.4-2.2
		C173.3,28.4,173.5,26,172.8,23.8 M126.5,24.9c2-0.2,2.9,1.6,1.1,3.4c-2,1.7-5.9,3.5-8.9,3.2l-0.6,0C119.8,27,123,25.2,126.5,24.9
		 M34.2,47.7c-0.3-1.2-0.4-2.5,0-3.7c0.5-1.7,1.1-3.1,1.9-4.4c0.3,0.5,0.7,1.1,1.2,1.6c2.7,2.7,6.6,2.2,10,1.1c-2,5.6-5.6,8.7-9.3,9
		c-0.4,0-0.8,0-1.1-0.1C35.7,50.9,34.7,49.5,34.2,47.7 M40.5,38.2c-0.6-0.6-1-1.9-0.9-2.4c1.3-0.9,2.8-1.4,4.2-1.5
		c0.5,0,0.9,0,1.3,0.1c1,0.3,1.9,1.3,2.4,2.6c0,0,0,0.1,0,0.1c0,0,0,0.1,0,0.1c0,0.1,0.1,0.2,0.1,0.2C44.6,38.8,41.8,39.6,40.5,38.2
		 M80.6,39c-2,6.1-5.8,9.6-9.6,9.9c-0.4,0-0.8,0-1.1-0.1c-2.1-0.6-3.5-4.4-2.7-7.3c1.7-6.1,5.7-9.4,9.6-9.8c0.5,0,0.9,0,1.3,0.1
		C80.2,32.5,81.6,35.9,80.6,39 M159.5,39.3c-0.4,0-0.8,0-1.1-0.1c-2.1-0.6-3.5-4.4-2.7-7.3c0.5-1.7,1.1-3.1,1.9-4.4
		c0.3,0.5,0.7,1.1,1.2,1.7c2.7,2.7,6.6,2.2,10,1.1C166.8,35.9,163.2,39,159.5,39.3 M162.1,26.1c-0.6-0.6-1-2-0.9-2.4
		c1.3-0.9,2.7-1.4,4.2-1.5c0.5,0,0.9,0,1.3,0.1c1.1,0.4,2.1,1.6,2.5,3.1C166.2,26.6,163.4,27.4,162.1,26.1"/>
</g>
</svg>
